<svg xmlns="http://www.w3.org/2000/svg" fill-rule="evenodd" stroke-linejoin="round" stroke-miterlimit="1.414" clip-rule="evenodd" viewBox="0 0 313 188">
  <path fill="#fff" fill-rule="nonzero" stroke="#415f7a" stroke-width="3.958" d="M300.725 168.683c0 8.23-6.634 14.904-14.817 14.904H27.528c-8.183 0-14.816-6.675-14.816-14.904V20.066c0-8.229 6.633-14.908 14.816-14.908h258.38c8.183 0 14.817 6.68 14.817 14.908v148.617z"/>
  <path fill="#415f7a" fill-rule="nonzero" d="M12.712 23.445h288.013V70.03H12.712z"/>
  <path fill="#536e87" fill-rule="nonzero" d="M206.45 118.15H24.79V83.89h181.66v34.259z"/>
  <text x="300.15" y="246.404" fill="#415f7a" font-family="'CamingoCode-Bold','CamingoCode',monospace" font-size="18.75" font-weight="700" transform="translate(-68.003 -139.51)">
    1<tspan x="311.588 323.025" y="246.404 246.404">23</tspan>
  </text>
  <path fill="#b9c7d3" fill-opacity=".29" fill-rule="nonzero" d="M267.012 138.385c.437 0 .846-.237.846-.846 0-.604-.409-.841-.846-.841h-5.804c-.963 0-1.688.725-1.688 1.687v3.242c0 .675.134 1.162.659 1.633-.525.475-.659.967-.659 1.638v3.241c0 .963.725 1.684 1.688 1.684h5.804c.437 0 .846-.23.846-.842 0-.604-.409-.842-.846-.842h-5.804v-2.804c0-.942.37-1.23.846-1.23h3.304c.441 0 .846-.237.846-.845 0-.604-.405-.842-.846-.842h-3.304c-.475 0-.846-.287-.846-1.233v-2.8h5.804zm-17.954 9.755v-3.409c0-.488-.217-.846-.842-.846-.629 0-.846.358-.846.846v4.25c0 .612.404.842.846.842h6.646c.442 0 .846-.23.846-.842 0-.604-.404-.842-.846-.842h-2.48v-9.754h2.48c.442 0 .846-.237.846-.846 0-.604-.404-.841-.846-.841h-4.167v11.441h-1.637zm-11.304-4.284v-4.883c0-.421-.205-.842-.846-.842-.642 0-.842.42-.842.842v4.883c-.442 0-.846.23-.846.842 0 .604.404.841.846.841v3.442c0 .542.233.842.842.842.608 0 .846-.3.846-.842v-3.442h4.958v-8c0-.42-.2-.841-.842-.841-.641 0-.841.42-.841.841v6.317h-3.275zm-12.996 4.284v-3.409c0-.488-.217-.846-.842-.846s-.842.358-.842.846v4.25c0 .612.4.842.842.842h6.65c.438 0 .842-.23.842-.842 0-.604-.404-.842-.842-.842h-2.483v-9.754h2.483c.438 0 .842-.237.842-.846 0-.604-.404-.841-.842-.841h-4.17v11.441h-1.638zm-21.008-5.722h-3.105c-.537 0-.946.084-1.35.471-.47.442-.52.846-.52 1.434v3.612c0 .521.05.896.404 1.317.42.508.862.57 1.466.57h3.75c.438 0 .692-.112 1.113-.3l.641-.283c.455-.204.963-.358.963-.95 0-.437-.375-.841-.813-.841-.204 0-.354.05-.537.133l-.508.22c-.238.1-.625.338-.896.338h-3.896v-4.033h4.98v-7.408h-5.826c-.437 0-.842.237-.842.841 0 .609.405.846.842.846h4.133v4.033zm-15.438-1.404v-2.629h4.958v2.63h-4.958zm0 1.688h5.804a.85.85 0 0 0 .842-.842v-4.32a.856.856 0 0 0-.842-.842h-6.65a.858.858 0 0 0-.842.841v11.442c0 .458.338.842.842.842h.846a.821.821 0 0 0 .842-.842c0-.504-.355-.842-.842-.842v-5.437zm-7.188 5.438h-5.804c-.437 0-.846.237-.846.841 0 .612.409.842.846.842h7.492v-5.5c0-1.267-.642-1.905-1.908-1.905h-4.742v-4.033h5.808c.438 0 .842-.237.842-.846 0-.604-.404-.841-.842-.841h-5.604c-.558 0-.946.087-1.367.47-.47.442-.525.896-.525 1.505v3.458c0 .608.055 1.067.525 1.504.421.388.809.47 1.367.47h4.758v4.034zm-12.15-2.6v2.6h-4.962v-2.6h4.962zm0-1.684h-5.633c-.846 0-1.017.354-1.017 1.125v3.783c0 .792.342 1.059 1.1 1.059h6.142c.792 0 1.096-.284 1.096-1.059V137.54c0-.387-.133-.841-.725-.841h-1.013c-.437 0-.791.408-.791.841 0 .509.354.846.841.846v5.47zm-25.97-1.438h-3.105c-.541 0-.941.084-1.35.471-.466.442-.52.846-.52 1.434v3.612c0 .521.054.896.404 1.317.42.508.862.57 1.466.57h3.75c.438 0 .692-.112 1.113-.3l.637-.283c.459-.204.967-.358.967-.95 0-.437-.37-.841-.808-.841-.204 0-.354.05-.542.133l-.504.22c-.242.1-.63.338-.896.338h-3.9v-4.033h4.98v-7.408h-5.826c-.437 0-.841.237-.841.841 0 .609.404.846.841.846h4.134v4.033zm-9.63-4.033c.438 0 .842-.237.842-.846 0-.604-.404-.841-.842-.841h-5.812c-.958 0-1.683.725-1.683 1.687v3.242c0 .675.133 1.162.658 1.633-.525.475-.658.967-.658 1.638v3.241c0 .963.725 1.684 1.683 1.684h5.812c.438 0 .842-.23.842-.842 0-.604-.404-.842-.842-.842h-5.812v-2.804c0-.942.375-1.23.846-1.23h3.308c.442 0 .846-.237.846-.845 0-.604-.404-.842-.846-.842h-3.308c-.471 0-.846-.287-.846-1.233v-2.8h5.812zm-14.666 4.033h-3.109c-.537 0-.941.084-1.345.471-.471.442-.525.846-.525 1.434v3.612c0 .521.054.896.408 1.317.417.508.858.57 1.462.57h3.75c.438 0 .692-.112 1.113-.3l.642-.283c.454-.204.962-.358.962-.95 0-.437-.37-.841-.808-.841-.204 0-.354.05-.542.133l-.504.22c-.238.1-.625.338-.896.338h-3.9v-4.033h4.98v-7.408h-5.822c-.437 0-.845.237-.845.841 0 .609.408.846.845.846h4.134v4.033zm-13.754 0v-4.033h1.587v4.033h-1.587zm-1.688 5.721v-4.033h4.963v4.033h-4.963zm.846-11.441c-.571 0-.846.408-.846.841v4.88c-.52 0-.93.183-1.23.47-.303.288-.457.709-.457 1.234v4.016c0 1.03.641 1.684 1.687 1.684h4.963c1.05 0 1.687-.655 1.687-1.684v-4.016c0-.525-.15-.946-.458-1.234-.3-.287-.704-.47-1.23-.47v-4.88c0-.433-.27-.841-.845-.841h-3.271zm-25.146 4.316v-2.629h4.967v2.63h-4.967zm0 1.688h5.808c.471 0 .846-.4.846-.842v-4.32a.862.862 0 0 0-.846-.842h-6.65a.858.858 0 0 0-.841.841v11.442c0 .458.337.842.841.842h.842a.822.822 0 0 0 .846-.842c0-.504-.354-.842-.846-.842v-5.437zm-7.183-4.317c0 .37.304.842.846.842.537 0 .841-.471.841-.842v-.846c0-.37-.304-.841-.841-.841h-7.496v4.891c0 .592-.017.659.454 1.067l2.362 2.042c.438.387.475.425.475 1.008v3.275c0 .542.234.842.842.842.604 0 .842-.3.842-.842v-4.063c0-.558-.017-.612-.434-.983l-2.329-2.008c-.562-.488-.525-.471-.525-1.213v-2.329h4.963zm-17.113 2.629v-2.629h4.958v2.63H54.67zm0 1.688h5.808c.471 0 .842-.4.842-.842v-4.32a.858.858 0 0 0-.842-.842h-6.654a.861.861 0 0 0-.841.841v11.442c0 .458.337.842.841.842h.846a.821.821 0 0 0 .842-.842c0-.504-.354-.842-.842-.842v-5.437zm-6.342-4.317c.438 0 .842-.237.842-.846 0-.604-.404-.841-.842-.841H42.52c-.958 0-1.687.725-1.687 1.687v3.242c0 .675.133 1.162.658 1.633-.525.475-.658.967-.658 1.638v3.241c0 .963.729 1.684 1.687 1.684h5.808c.438 0 .842-.23.842-.842 0-.604-.404-.842-.842-.842H42.52v-2.804c0-.942.371-1.23.846-1.23h3.304c.442 0 .846-.237.846-.845 0-.604-.404-.842-.846-.842h-3.304c-.475 0-.846-.287-.846-1.233v-2.8h5.808z"/>
  <ellipse cx="386.042" cy="209.472" fill="none" stroke="#ff2960" stroke-linecap="round" stroke-miterlimit="1.5" stroke-width="1.97" rx="28.349" ry="15.804" transform="translate(-118.986 -98.003) scale(.9518)"/>
</svg>
